<?xml version="1.0" encoding="UTF-8"?>
<svg id="Layer_1" data-name="Layer 1" xmlns="http://www.w3.org/2000/svg" viewBox="0 0 180 180">
  <defs>
    <style>
      .cls-1, .cls-2 {
        fill: #fff;
      }

      .cls-2 {
        fill-rule: evenodd;
      }

      .cls-3 {
        fill: #0061af;
      }
    </style>
  </defs>
  <rect class="cls-3" x="38.66" y="32.67" width="102.68" height="114.67"/>
  <g>
    <path class="cls-1" d="M90.5,66.6c6.75,1.95,11.71,8.39,11.71,16.04,0,9.19-7.16,16.64-16,16.64s-16-7.45-16-16.64c0-.33.01-.66.03-.98.47,7.99,6.85,14.32,14.65,14.32s14.67-6.83,14.67-15.27c0-6.37-3.75-11.82-9.07-14.11"/>
    <path class="cls-1" d="M129,86.72v31.88c0,1.38-1.24,2.49-2.76,2.49h-2.23v-45.29l4.99,2.43v8.49Z"/>
    <path class="cls-1" d="M107.71,104.68h-3.35c-.79-.02-1.02.45-1.02,1.11v2.36h4.37v-3.47Z"/>
    <path class="cls-1" d="M63.73,104.68h3.35c.79-.02,1.02.45,1.02,1.11v2.36h-4.37v-3.47Z"/>
    <path class="cls-1" d="M63.03,104.68h-3.35c-.79-.02-1.02.45-1.02,1.11v2.36h4.37v-3.47Z"/>
    <path class="cls-1" d="M81.27,112.27h3.25v3.8h-3.25v-3.8ZM55.99,108.01h-4.99v10.58c0,1.38,1.24,2.49,2.76,2.49h35.04l-.11-12.02h-10.23c-.97.01-1.42.62-1.36,1.47v5.53h-5.34v-5.02h-3.31c-.76.17-.97.5-.87,1.11v3.9l-8.99.03h0s-2.6,0-2.6,0v-8.09Z"/>
    <path class="cls-1" d="M121.43,74.54v44.06c0,1.38-1.24,2.49-2.76,2.49h-28.33v-4.98l6.16-.03v-6.09c-.01-.54.09-1.24,1.37-1.02h2.8v7.12h8.38v-3.64h-4.64c-.84.02-1.08-.45-1.08-1.11v-2.36h9.89v7.12s.6,0,.6,0h0s.7,0,.7,0h1.37s0,0,0,0h.54v-43.96l2.53,1.22,2.46,1.2Z"/>
    <polygon class="cls-2" points="80.49 53.98 78.7 54.85 55.99 65.82 55.99 106.66 51 106.66 51 68.24 51 63.78 51 62.7 72.67 52.22 74.75 51.21 77.32 49.97 90 43.84 129 62.7 129 64.76 129 68.24 129 68.8 129 76.68 124.01 74.27 124.01 65.82 90 49.38 82.53 53 80.49 53.98"/>
    <polygon class="cls-2" points="90 52.25 58.57 67.44 58.57 72.99 90 57.79 108.63 66.8 108.64 66.79 110.16 67.54 121.43 72.99 121.43 67.44 90 52.25"/>
    <path class="cls-1" d="M126.91,126.92v7.46h-2.49v-7.46h-2.05v-2.11h6.6v2.11h-2.05ZM119.15,130.81l-1.01-3.04h-.03l-1.03,3.04h2.07ZM119.82,132.71h-3.42l-.66,1.66h-2.64l3.68-9.56h2.71l3.6,9.56h-2.65l-.62-1.66ZM100.92,134.37l1.62-9.56h2.45l1.94,5.11,2.05-5.11h2.47l1.45,9.56h-2.49l-.7-5.5h-.03l-2.3,5.5h-.99l-2.19-5.5h-.03l-.8,5.5h-2.47ZM94.44,126.92v5.35h.56c.74,0,1.39-.2,1.93-.63.54-.43.82-1.11.82-2.04,0-.86-.25-1.52-.76-1.98-.51-.47-1.16-.7-1.97-.7h-.58ZM91.96,134.37v-9.56h3.53c1.34,0,2.48.47,3.43,1.39.95.92,1.43,2.06,1.43,3.4s-.48,2.48-1.43,3.39c-.96.92-2.1,1.38-3.43,1.38h-3.53ZM90.33,124.81v9.56h-2.49v-9.56h2.49ZM80.15,128.5h3.59v-3.69h2.49v9.56h-2.49v-3.92h-3.59v3.92h-2.49v-9.56h2.49v3.69ZM70.56,128.75l3.01-3.94h3.08l-3.81,4.53,4.15,5.04h-3.22l-3.21-4.15h-.03v4.15h-2.49v-9.56h2.49v3.94h.03ZM64.25,124.81v7.46h2.98v2.11h-5.47v-9.56h2.49ZM57.05,130.81l-1.01-3.04h-.03l-1.03,3.04h2.07ZM57.72,132.71h-3.42l-.66,1.66h-2.64l3.68-9.56h2.71l3.6,9.56h-2.65l-.62-1.66Z"/>
  </g>
</svg>